<?xml version="1.0" encoding="UTF-8"?> <!-- Creator: CorelDRAW X7 --> <svg xmlns="http://www.w3.org/2000/svg" xmlns:xlink="http://www.w3.org/1999/xlink" xml:space="preserve" width="297mm" height="210mm" style="shape-rendering:geometricPrecision; text-rendering:geometricPrecision; image-rendering:optimizeQuality; fill-rule:evenodd; clip-rule:evenodd" viewBox="0 0 29700 21000"> <defs> <style type="text/css"> <![CDATA[ .fil0 {fill:#373435} ]]> </style> </defs> <g id="Layer_x0020_1"> <metadata id="CorelCorpID_0Corel-Layer"></metadata> <path class="fil0" d="M7011 13951l-292 0 0 123 156 0 0 180c-47,27 -110,40 -179,40 -158,0 -262,-121 -262,-284 0,-152 104,-273 262,-273 77,0 151,27 200,74l100 -101c-80,-71 -184,-96 -301,-96 -235,0 -404,160 -404,405 0,238 169,398 404,398 118,0 224,-26 316,-75l0 -391z"></path> <path class="fil0" d="M7212 14398l136 0 0 -324 99 0 177 324 165 0 -203 -338c113,-16 177,-97 177,-208 0,-171 -139,-219 -285,-219l-266 0 0 765zm136 -441l0 -207 118 0c70,0 154,11 154,101 0,100 -89,106 -166,106l-106 0z"></path> <path class="fil0" d="M7880 14398l152 0 69 -175 332 0 71 175 156 0 -330 -765 -117 0 -333 765zm268 -292l120 -311 117 311 -237 0z"></path> <polygon class="fil0" points="8788,14398 8924,14398 8924,13811 8926,13811 9304,14398 9477,14398 9477,13633 9341,13633 9341,14201 9339,14201 8968,13633 8788,13633 "></polygon> <path class="fil0" d="M9688 14398l285 0c183,0 405,-121 405,-382 0,-260 -188,-383 -389,-383l-301 0 0 765zm136 -123l0 -519 124 0c166,0 287,74 287,260 0,185 -139,259 -310,259l-101 0z"></path> <polygon class="fil0" points="10546,14398 11072,14398 11072,14275 10683,14275 10683,14067 11034,14067 11034,13944 10683,13944 10683,13756 11053,13756 11053,13633 10546,13633 "></polygon> <polygon class="fil0" points="11558,14398 12019,14398 12019,14275 11694,14275 11694,13633 11558,13633 "></polygon> <path class="fil0" d="M12099 14019c0,238 169,398 404,398 239,-4 407,-164 407,-403 0,-245 -168,-405 -407,-400 -235,0 -404,160 -404,405l0 0zm143 -9c0,-152 104,-273 262,-273 159,0 264,121 264,273 0,163 -105,284 -264,284 -158,0 -262,-121 -262,-284l0 0z"></path> <path class="fil0" d="M13449 13633l-136 0 0 513c0,92 -22,148 -100,148 -48,0 -82,-33 -91,-83l-127 30c23,121 104,176 224,176 154,0 230,-109 230,-231l0 -553z"></path> <path class="fil0" d="M13547 14398l153 0 69 -175 331 0 71 175 156 0 -329 -765 -118 0 -333 765zm268 -292l120 -311 118 311 -238 0z"></path> <path class="fil0" d="M14764 14398l285 0c184,0 405,-121 405,-382 0,-260 -188,-383 -388,-383l-302 0 0 765zm136 -123l0 -519 125 0c166,0 287,74 287,260 0,185 -139,259 -310,259l-102 0z"></path> <path class="fil0" d="M15505 14398l153 0 69 -175 331 0 72 175 155 0 -329 -765 -118 0 -333 765zm268 -292l120 -311 118 311 -238 0z"></path> <path class="fil0" d="M17097 13633l-136 0 0 513c0,92 -23,148 -100,148 -48,0 -82,-33 -91,-83l-128 30c24,121 105,176 225,176 153,0 230,-109 230,-231l0 -553z"></path> <path class="fil0" d="M17915 13633l-137 0 0 480c0,75 -41,175 -171,175 -131,0 -172,-100 -172,-175l0 -480 -136 0 0 484c0,185 133,300 308,300 175,0 308,-115 308,-300l0 -484z"></path> <path class="fil0" d="M18122 14398l136 0 0 -324 99 0 177 324 164 0 -203 -338c114,-16 178,-97 178,-208 0,-171 -139,-219 -286,-219l-265 0 0 765zm136 -441l0 -207 118 0c70,0 154,11 154,101 0,100 -90,106 -166,106l-106 0z"></path> <polygon class="fil0" points="18842,14398 18978,14398 18978,13633 18842,13633 "></polygon> <path class="fil0" d="M19656 13693c-59,-57 -139,-79 -219,-79 -142,0 -282,73 -282,231 0,273 363,177 363,344 0,70 -72,105 -134,105 -61,0 -118,-29 -151,-80l-103 100c63,74 156,103 251,103 150,0 279,-80 279,-244 0,-272 -363,-184 -363,-338 0,-70 63,-98 126,-98 53,0 104,19 134,60l99 -104z"></path> <path class="fil0" d="M19834 14398l286 0c183,0 405,-121 405,-382 0,-260 -188,-383 -389,-383l-302 0 0 765zm137 -123l0 -519 124 0c166,0 287,74 287,260 0,185 -139,259 -310,259l-101 0z"></path> <polygon class="fil0" points="20691,14398 20827,14398 20827,13633 20691,13633 "></polygon> <path class="fil0" d="M21665 13735c-75,-88 -164,-121 -268,-121 -235,0 -404,160 -404,405 0,219 142,371 348,395l-55 81 29 27c13,-4 26,-8 40,-8 23,0 55,11 55,39 0,36 -38,46 -61,46 -32,0 -62,-8 -89,-22l-24 50c35,19 75,30 115,30 65,0 150,-26 150,-105 0,-83 -67,-89 -131,-89l32 -46c111,-1 212,-42 280,-136l-112 -80c-51,65 -110,93 -172,93 -157,0 -262,-121 -262,-284 0,-152 105,-273 262,-273 53,0 105,16 161,76l106 -78z"></path> <path class="fil0" d="M21748 14398l152 0 70 -175 331 0 71 175 156 0 -330 -765 -117 0 -333 765zm268 -292l120 -311 118 311 -238 0zm-5 -529c7,-24 20,-46 49,-46 35,0 97,41 156,41 81,0 109,-68 121,-137l-72 0c-7,23 -20,45 -49,45 -35,0 -98,-40 -156,-40 -81,0 -109,68 -121,137l72 0z"></path> <path class="fil0" d="M22582 14019c0,238 168,398 404,398 238,-4 407,-164 407,-403 0,-245 -169,-405 -407,-400 -236,0 -404,160 -404,405l0 0zm142 -9c0,-152 105,-273 263,-273 158,0 263,121 263,273 0,163 -105,284 -263,284 -158,0 -263,-121 -263,-284l0 0z"></path> <path class="fil0" d="M7838 15478l285 0c184,0 405,-121 405,-383 0,-259 -188,-382 -389,-382l-301 0 0 765zm136 -123l0 -519 124 0c167,0 288,74 288,259 0,186 -140,260 -310,260l-102 0z"></path> <polygon class="fil0" points="8697,15478 9223,15478 9223,15355 8833,15355 8833,15147 9184,15147 9184,15024 8833,15024 8833,14836 9203,14836 9203,14713 8697,14713 "></polygon> <polygon class="fil0" points="9709,15478 10170,15478 10170,15355 9845,15355 9845,14713 9709,14713 "></polygon> <path class="fil0" d="M10303 15478l136 0 0 -765 -136 0 0 765zm17 -817l102 0 152 -155 -147 0 -107 155z"></path> <polygon class="fil0" points="10648,15478 10784,15478 10784,14891 10786,14891 11164,15478 11337,15478 11337,14713 11201,14713 11201,15281 11199,15281 10828,14713 10648,14713 "></polygon> <path class="fil0" d="M12228 15031l-293 0 0 123 157 0 0 180c-48,27 -110,40 -179,40 -158,0 -263,-121 -263,-284 0,-152 105,-273 263,-273 76,0 151,27 199,74l101 -101c-80,-72 -185,-96 -302,-96 -235,0 -403,159 -403,405 0,238 168,398 403,398 118,0 224,-26 317,-75l0 -391z"></path> <path class="fil0" d="M13036 14713l-136 0 0 480c0,75 -41,175 -172,175 -130,0 -171,-100 -171,-175l0 -480 -137 0 0 484c0,185 133,300 308,300 175,0 308,-115 308,-300l0 -484z"></path> <path class="fil0" d="M13125 15478l152 0 69 -175 332 0 71 175 156 0 -330 -765 -117 0 -333 765zm268 -292l120 -311 117 311 -237 0z"></path> <path class="fil0" d="M14342 15478l136 0 0 -317 97 0c162,0 306,-34 306,-227 0,-169 -134,-221 -282,-221l-257 0 0 765zm136 -433l0 -215 97 0c74,0 163,13 163,107 0,103 -100,108 -178,108l-82 0z"></path> <path class="fil0" d="M15000 15099c0,238 168,398 404,398 238,-4 407,-164 407,-403 0,-245 -169,-405 -407,-400 -236,0 -404,159 -404,405l0 0zm142 -9c0,-152 105,-273 263,-273 159,0 263,121 263,273 0,163 -104,284 -263,284 -158,0 -263,-121 -263,-284l0 0z"></path> <path class="fil0" d="M15981 15478l137 0 0 -324 99 0 177 324 164 0 -203 -338c114,-17 177,-98 177,-208 0,-171 -138,-219 -285,-219l-266 0 0 765zm137 -441l0 -207 117 0c70,0 155,11 155,101 0,100 -90,106 -167,106l-105 0z"></path> <polygon class="fil0" points="16871,15478 17007,15478 17007,14836 17241,14836 17241,14713 16636,14713 16636,14836 16871,14836 "></polygon> <path class="fil0" d="M17987 14713l-136 0 0 480c0,75 -41,175 -172,175 -130,0 -172,-100 -172,-175l1 -480 -137 0 0 484c0,185 133,300 308,300 175,0 308,-115 308,-300l0 -484z"></path> <path class="fil0" d="M18872 15031l-293 0 0 123 157 0 0 180c-48,27 -111,40 -180,40 -157,0 -262,-121 -262,-284 0,-152 105,-273 262,-273 77,0 152,27 200,74l101 -101c-80,-72 -185,-96 -302,-96 -235,0 -404,159 -404,405 0,238 169,398 404,398 118,0 224,-26 317,-75l0 -391z"></path> <path class="fil0" d="M19680 14713l-136 0 0 480c0,75 -41,175 -172,175 -131,0 -172,-100 -172,-175l0 -480 -136 0 0 484c0,185 133,300 308,300 175,0 308,-115 308,-300l0 -484z"></path> <polygon class="fil0" points="19887,15478 20412,15478 20412,15355 20023,15355 20023,15147 20374,15147 20374,15024 20023,15024 20023,14836 20393,14836 20393,14713 19887,14713 "></polygon> <path class="fil0" d="M21064 14772c-59,-56 -139,-78 -219,-78 -141,0 -282,73 -282,231 0,273 363,177 363,344 0,70 -71,105 -134,105 -60,0 -117,-29 -151,-80l-102 99c62,75 155,104 250,104 150,0 280,-80 280,-244 0,-272 -363,-185 -363,-338 0,-70 63,-98 125,-98 53,0 105,19 134,60l99 -105z"></path> <path class="fil0" d="M21151 15478l153 0 69 -175 331 0 72 175 155 0 -329 -765 -118 0 -333 765zm268 -292l120 -311 118 311 -238 0z"></path> <path class="fil0" d="M14850 12417c0,0 -3998,0 -5901,0 -1903,0 -5901,-40 -5901,-40 0,0 3998,-39 5901,-39 1903,0 5901,0 5901,0 0,0 3998,0 5901,0 1903,0 5902,39 5902,39 0,0 -3999,40 -5902,40 -1903,0 -5901,0 -5901,0z"></path> <path class="fil0" d="M18628 7352c-34,0 -62,-28 -62,-62 0,-34 28,-62 62,-62 34,0 62,28 62,62 0,34 -28,62 -62,62zm-65 161c-34,0 -62,-28 -62,-62 0,-34 28,-62 62,-62 34,0 62,28 62,62 0,34 -28,62 -62,62zm-155 -217c0,-34 28,-62 62,-62 34,0 62,28 62,62 0,34 -28,62 -62,62 -34,0 -62,-28 -62,-62zm-9 217c-34,0 -62,-28 -62,-62 0,-34 28,-62 62,-62 35,0 62,28 62,62 0,34 -27,62 -62,62zm-154 -218c0,-34 28,-61 62,-61 34,0 62,27 62,61 0,35 -28,62 -62,62 -34,0 -62,-27 -62,-62zm-9 217c-34,0 -62,-27 -62,-62 0,-34 28,-62 62,-62 34,0 62,28 62,62 0,34 -28,62 -62,62zm-154 -216c0,-34 28,-62 62,-62 34,0 62,28 62,62 0,34 -28,62 -62,62 -34,0 -62,-28 -62,-62zm-9 217c-34,0 -62,-28 -62,-62 0,-34 28,-62 62,-62 34,0 62,28 62,62 0,34 -28,62 -62,62zm-154 -218c0,-34 28,-61 62,-61 34,0 62,27 62,61 0,35 -28,62 -62,62 -34,0 -62,-27 -62,-62zm-10 217c-34,0 -61,-27 -61,-62 0,-34 27,-62 61,-62 35,0 63,28 63,62 0,34 -28,62 -63,62zm-153 -216c0,-34 27,-62 62,-62 34,0 62,28 62,62 0,35 -28,62 -62,62 -35,0 -62,-27 -62,-62zm-10 217c-34,0 -62,-27 -62,-62 0,-34 28,-62 62,-62 34,0 62,28 62,62 0,35 -28,62 -62,62zm-153 -217c0,-34 27,-62 62,-62 34,0 62,28 62,62 0,34 -28,62 -62,62 -35,0 -62,-28 -62,-62zm-10 217c-34,0 -62,-28 -62,-62 0,-34 28,-62 62,-62 34,0 62,28 62,62 0,34 -28,62 -62,62zm-153 -217c0,-34 28,-62 62,-62 34,0 62,28 62,62 0,35 -28,62 -62,62 -34,0 -62,-27 -62,-62zm-10 217c-35,0 -62,-27 -62,-62 0,-34 27,-62 62,-62 34,0 62,28 62,62 0,35 -28,62 -62,62zm-153 -217c0,-34 28,-62 62,-62 34,0 62,28 62,62 0,34 -28,62 -62,62 -34,0 -62,-28 -62,-62zm-11 217c-34,0 -62,-28 -62,-62 0,-34 28,-62 62,-62 34,0 62,28 62,62 0,34 -28,62 -62,62zm-152 -217c0,-34 28,-62 62,-62 34,0 61,28 61,62 0,34 -27,62 -61,62 -34,0 -62,-28 -62,-62zm-11 217c-34,0 -62,-28 -62,-62 0,-34 28,-62 62,-62 34,0 62,28 62,62 0,34 -28,62 -62,62zm-152 -218c0,-34 28,-61 61,-61 35,0 63,27 63,61 0,35 -28,62 -63,62 -33,0 -61,-27 -61,-62zm-12 217c-33,0 -61,-27 -61,-62 0,-34 28,-62 61,-62 35,0 63,28 63,62 0,34 -28,62 -63,62zm-151 -216c0,-34 27,-62 62,-62 34,0 62,28 62,62 0,34 -28,62 -62,62 -35,0 -62,-28 -62,-62zm-12 217c-34,0 -62,-28 -62,-62 0,-34 28,-62 62,-62 34,0 62,28 62,62 0,34 -28,62 -62,62zm-152 -218c0,-34 28,-61 63,-61 34,0 62,27 62,61 0,35 -28,62 -62,62 -35,0 -63,-27 -63,-62zm-11 217c-34,0 -62,-27 -62,-62 0,-34 28,-62 62,-62 34,0 62,28 62,62 0,34 -28,62 -62,62zm-152 -216c0,-34 28,-62 63,-62 34,0 62,28 62,62 0,34 -28,62 -62,62 -35,0 -63,-28 -63,-62zm-11 217c-35,0 -62,-28 -62,-62 0,-34 27,-62 62,-62 34,0 62,28 62,62 0,34 -28,62 -62,62zm-152 -218c0,-34 28,-61 62,-61 35,0 62,27 62,61 0,35 -27,62 -62,62 -34,0 -62,-27 -62,-62zm-12 217c-34,0 -62,-27 -62,-62 0,-34 28,-62 62,-62 34,0 62,28 62,62 0,34 -28,62 -62,62zm-151 -216c0,-34 28,-62 62,-62 35,0 62,28 62,62 0,34 -27,62 -62,62 -34,0 -62,-28 -62,-62zm-12 217c-34,0 -62,-28 -62,-62 0,-34 27,-62 62,-62 34,0 62,28 62,62 0,34 -28,62 -62,62zm-151 -218c0,-34 28,-61 62,-61 34,0 62,27 62,61 0,35 -28,62 -62,62 -34,0 -62,-27 -62,-62zm-13 217c-34,0 -61,-27 -61,-62 0,-34 27,-62 61,-62 35,0 63,28 63,62 0,34 -28,62 -63,62zm-149 -217c0,-34 27,-61 61,-61 34,0 62,27 62,61 0,35 -28,62 -62,62 -34,0 -61,-27 -61,-62zm-14 217c-34,0 -62,-27 -62,-62 0,-34 28,-62 62,-62 34,0 62,28 62,62 0,34 -28,62 -62,62zm-150 -217c0,-34 28,-62 62,-62 34,0 62,28 62,62 0,34 -28,62 -62,62 -34,0 -62,-28 -62,-62zm-13 217c-34,0 -62,-28 -62,-62 0,-34 28,-62 62,-62 34,0 62,28 62,62 0,34 -28,62 -62,62zm-150 -217c0,-34 28,-61 62,-61 34,0 62,27 62,61 0,35 -28,62 -62,62 -34,0 -62,-27 -62,-62zm-75 -154c0,-34 28,-62 62,-62 34,0 62,28 62,62 0,34 -28,62 -62,62 -34,0 -62,-28 -62,-62zm18 201c-31,-26 -64,-50 -99,-72 10,-19 30,-32 54,-32 34,0 61,28 61,62 0,16 -6,31 -16,42zm-182 -202c0,-34 28,-62 62,-62 34,0 63,28 63,62 0,34 -29,62 -63,62 -34,0 -62,-28 -62,-62zm389 -62c34,0 62,28 62,62 0,34 -28,62 -62,62 -34,0 -62,-28 -62,-62 0,-34 28,-62 62,-62zm163 1c34,0 62,28 62,62 0,34 -28,62 -62,62 -34,0 -62,-28 -62,-62 0,-34 28,-62 62,-62zm164 0c34,0 62,28 62,62 0,34 -28,62 -62,62 -35,0 -62,-28 -62,-62 0,-34 27,-62 62,-62zm163 0c34,0 62,28 62,62 0,34 -28,62 -62,62 -34,0 -62,-28 -62,-62 0,-34 27,-62 62,-62zm163 0c34,0 62,28 62,62 0,34 -28,62 -62,62 -34,0 -62,-28 -62,-62 0,-34 28,-62 62,-62zm164 0c34,0 62,28 62,62 0,34 -28,62 -62,62 -35,0 -62,-28 -62,-62 0,-34 27,-62 62,-62zm163 0c34,0 62,28 62,62 0,34 -28,62 -62,62 -34,0 -62,-28 -62,-62 0,-34 28,-62 62,-62zm163 0c34,0 62,28 62,62 0,34 -28,62 -62,62 -34,0 -61,-28 -61,-62 0,-34 27,-62 61,-62zm163 0c35,0 63,28 63,62 0,34 -28,62 -63,62 -33,0 -61,-28 -61,-62 0,-34 28,-62 61,-62zm164 0c34,0 62,28 62,62 0,34 -28,62 -62,62 -34,0 -62,-28 -62,-62 0,-34 28,-62 62,-62zm163 0c34,0 62,28 62,62 0,34 -28,62 -62,62 -34,0 -62,-28 -62,-62 0,-34 28,-62 62,-62zm164 0c34,0 62,28 62,63 0,34 -28,61 -62,61 -35,0 -62,-27 -62,-61 0,-35 27,-63 62,-63zm163 0c34,0 62,28 62,62 0,34 -28,62 -62,62 -34,0 -62,-28 -62,-62 0,-34 28,-62 62,-62zm163 0c34,0 62,28 62,63 0,34 -28,61 -62,61 -34,0 -62,-27 -62,-61 0,-35 28,-63 62,-63zm163 0c35,0 63,28 63,62 0,34 -28,62 -63,62 -34,0 -61,-28 -61,-62 0,-34 27,-62 61,-62zm164 0c34,0 62,28 62,62 0,34 -28,62 -62,62 -34,0 -62,-28 -62,-62 0,-34 28,-62 62,-62zm163 0c34,0 62,28 62,62 0,34 -28,62 -62,62 -34,0 -62,-28 -62,-62 0,-34 28,-62 62,-62zm163 0c35,0 62,28 62,62 0,34 -27,62 -62,62 -34,0 -62,-28 -62,-62 0,-34 28,-62 62,-62zm164 0c34,0 62,28 62,62 0,34 -28,62 -62,62 -34,0 -62,-28 -62,-62 0,-34 28,-62 62,-62zm31 -38l-3289 0c-64,0 -116,46 -116,101l0 61c168,70 309,191 405,343l3000 0c64,0 116,-45 116,-101l0 -303c0,-55 -52,-101 -116,-101zm-4190 161c-35,0 -62,-28 -62,-62 0,-34 27,-62 62,-62 34,0 61,28 61,62 0,34 -27,62 -61,62zm-120 140c-10,-11 -17,-26 -17,-42 0,-34 28,-62 63,-62 22,0 42,13 53,32 -35,22 -68,46 -99,72zm-106 -201c0,-34 28,-62 63,-62 34,0 61,28 61,62 0,34 -27,62 -61,62 -35,0 -63,-28 -63,-62zm-13 216c-34,0 -62,-27 -62,-62 0,-34 28,-61 62,-61 34,0 62,27 62,61 0,35 -28,62 -62,62zm-88 155c-34,0 -62,-28 -62,-62 0,-34 28,-62 62,-62 34,0 62,28 62,62 0,34 -28,62 -62,62zm-137 -217c0,-34 28,-62 62,-62 34,0 62,28 62,62 0,34 -28,62 -62,62 -34,0 -62,-28 -62,-62zm-26 217c-34,0 -62,-27 -62,-62 0,-34 28,-62 62,-62 34,0 62,28 62,62 0,34 -28,62 -62,62zm-137 -217c0,-34 27,-61 62,-61 34,0 62,27 62,61 0,35 -28,62 -62,62 -35,0 -62,-27 -62,-62zm-26 217c-34,0 -63,-27 -63,-62 0,-34 29,-62 63,-62 33,0 61,28 61,62 0,34 -28,62 -61,62zm-137 -217c0,-34 28,-61 62,-61 34,0 62,27 62,61 0,35 -28,62 -62,62 -34,0 -62,-27 -62,-62zm-27 218c-34,0 -62,-28 -62,-62 0,-34 28,-62 62,-62 34,0 62,28 62,62 0,34 -28,62 -62,62zm-136 -217c0,-34 28,-62 62,-62 34,0 62,28 62,62 0,34 -28,62 -62,62 -34,0 -62,-28 -62,-62zm-27 216c-34,0 -62,-27 -62,-62 0,-34 28,-62 62,-62 34,0 62,28 62,62 0,34 -28,62 -62,62zm-137 -217c0,-34 29,-61 63,-61 34,0 61,27 61,61 0,35 -27,62 -61,62 -34,0 -63,-27 -63,-62zm-27 218c-34,0 -62,-28 -62,-62 0,-34 28,-62 62,-62 34,0 62,28 62,62 0,34 -28,62 -62,62zm-135 -217c0,-34 27,-62 61,-62 35,0 62,28 62,62 0,34 -27,62 -62,62 -34,0 -61,-28 -61,-62zm-28 216c-34,0 -62,-27 -62,-62 0,-34 28,-62 62,-62 34,0 62,28 62,62 0,34 -28,62 -62,62zm-135 -217c0,-34 27,-61 61,-61 34,0 63,27 63,61 0,35 -29,62 -63,62 -34,0 -61,-27 -61,-62zm-29 218c-34,0 -61,-28 -61,-62 0,-34 27,-62 61,-62 35,0 63,28 63,62 0,34 -28,62 -63,62zm-135 -217c0,-34 28,-62 62,-62 35,0 62,28 62,62 0,34 -27,62 -62,62 -34,0 -62,-28 -62,-62zm-28 216c-33,0 -62,-27 -62,-62 0,-34 29,-62 62,-62 35,0 62,28 62,62 0,34 -27,62 -62,62zm-135 -217c0,-34 28,-61 62,-61 34,0 62,27 62,61 0,35 -28,62 -62,62 -34,0 -62,-27 -62,-62zm-28 218c-34,0 -62,-28 -62,-62 0,-34 28,-62 62,-62 34,0 62,28 62,62 0,34 -28,62 -62,62zm-135 -217c0,-34 28,-62 62,-62 35,0 62,28 62,62 0,34 -27,62 -62,62 -34,0 -62,-28 -62,-62zm-28 217c-34,0 -62,-28 -62,-62 0,-34 28,-62 62,-62 34,0 61,28 61,62 0,34 -27,62 -61,62zm-135 -217c0,-34 28,-62 62,-62 35,0 62,28 62,62 0,34 -27,62 -62,62 -34,0 -62,-28 -62,-62zm-28 217c-35,0 -63,-27 -63,-62 0,-34 28,-62 63,-62 34,0 61,28 61,62 0,35 -27,62 -61,62zm-135 -217c0,-34 28,-62 62,-62 34,0 62,28 62,62 0,35 -28,62 -62,62 -34,0 -62,-27 -62,-62zm-29 217c-34,0 -62,-28 -62,-62 0,-34 28,-62 62,-62 34,0 62,28 62,62 0,34 -28,62 -62,62zm-134 -217c0,-34 28,-62 62,-62 34,0 62,28 62,62 0,34 -28,62 -62,62 -34,0 -62,-28 -62,-62zm-29 217c-34,0 -62,-27 -62,-62 0,-34 28,-62 62,-62 34,0 62,28 62,62 0,35 -28,62 -62,62zm-134 -217c0,-34 28,-62 62,-62 34,0 62,28 62,62 0,35 -28,62 -62,62 -34,0 -62,-27 -62,-62zm-30 216c-34,0 -62,-27 -62,-62 0,-34 28,-62 62,-62 34,0 62,28 62,62 0,34 -28,62 -62,62zm-133 -217c0,-34 28,-61 62,-61 34,0 62,27 62,61 0,35 -28,62 -62,62 -34,0 -62,-27 -62,-62zm-30 218c-34,0 -62,-28 -62,-62 0,-34 28,-62 62,-62 34,0 62,28 62,62 0,34 -28,62 -62,62zm-133 -217c0,-34 28,-62 62,-62 34,0 62,28 62,62 0,34 -28,62 -62,62 -34,0 -62,-28 -62,-62zm-30 216c-35,0 -62,-27 -62,-62 0,-34 27,-62 62,-62 34,0 62,28 62,62 0,34 -28,62 -62,62zm-133 -217c0,-34 28,-61 62,-61 34,0 62,27 62,61 0,35 -28,62 -62,62 -34,0 -62,-27 -62,-62zm-30 218c-35,0 -62,-28 -62,-62 0,-34 27,-62 62,-62 33,0 61,28 61,62 0,34 -28,62 -61,62zm-133 -217c0,-34 28,-62 62,-62 34,0 62,28 62,62 0,34 -28,62 -62,62 -34,0 -62,-28 -62,-62zm-31 217c-34,0 -62,-28 -62,-62 0,-34 28,-62 62,-62 35,0 62,28 62,62 0,34 -27,62 -62,62zm-127 -223c0,-34 28,-62 62,-62 34,0 62,28 62,62 0,34 -28,62 -62,62 -34,0 -62,-28 -62,-62zm127 -211c35,0 62,28 62,62 0,34 -27,62 -62,62 -34,0 -62,-28 -62,-62 0,-34 28,-62 62,-62zm164 0c33,0 61,28 61,62 0,34 -28,62 -61,62 -35,0 -62,-28 -62,-62 0,-34 27,-62 62,-62zm163 0c34,0 62,28 62,62 0,34 -28,62 -62,62 -35,0 -62,-28 -62,-62 0,-34 27,-62 62,-62zm163 0c34,0 62,28 62,62 0,34 -28,62 -62,62 -34,0 -62,-28 -62,-62 0,-34 28,-62 62,-62zm163 0c34,0 62,28 62,62 0,34 -28,62 -62,62 -34,0 -62,-28 -62,-62 0,-34 28,-62 62,-62zm164 0c34,0 62,28 62,63 0,34 -28,61 -62,61 -34,0 -62,-27 -62,-61 0,-35 28,-63 62,-63zm163 0c34,0 62,28 62,62 0,34 -28,62 -62,62 -34,0 -62,-28 -62,-62 0,-34 28,-62 62,-62zm164 0c34,0 61,28 61,63 0,34 -27,61 -61,61 -35,0 -63,-27 -63,-61 0,-35 28,-63 63,-63zm163 0c34,0 61,28 61,62 0,34 -27,62 -61,62 -34,0 -62,-28 -62,-62 0,-34 28,-62 62,-62zm163 0c34,0 62,28 62,62 0,34 -28,62 -62,62 -34,0 -62,-28 -62,-62 0,-34 28,-62 62,-62zm163 0c35,0 62,28 62,62 0,34 -27,62 -62,62 -33,0 -62,-28 -62,-62 0,-34 29,-62 62,-62zm163 0c35,0 63,28 63,62 0,34 -28,62 -63,62 -34,0 -61,-28 -61,-62 0,-34 27,-62 61,-62zm164 0c34,0 62,28 62,62 0,34 -28,62 -62,62 -34,0 -62,-28 -62,-62 0,-34 28,-62 62,-62zm163 0c34,0 62,28 62,62 0,34 -28,62 -62,62 -34,0 -62,-28 -62,-62 0,-34 28,-62 62,-62zm164 0c34,0 62,28 62,62 0,34 -28,62 -62,62 -34,0 -62,-28 -62,-62 0,-34 28,-62 62,-62zm163 0c34,0 62,28 62,62 0,34 -28,62 -62,62 -34,0 -62,-28 -62,-62 0,-34 28,-62 62,-62zm164 0c33,0 61,28 61,62 0,34 -28,62 -61,62 -34,0 -63,-28 -63,-62 0,-34 29,-62 63,-62zm163 0c34,0 62,28 62,62 0,34 -28,62 -62,62 -34,0 -62,-28 -62,-62 0,-34 28,-62 62,-62zm163 -1c34,0 62,28 62,62 0,34 -28,62 -62,62 -34,0 -62,-28 -62,-62 0,-34 28,-62 62,-62zm318 -37l-3289 0c-64,0 -116,46 -116,101l0 303c0,56 52,101 116,101l3000 0c96,-152 238,-272 405,-343l0 -61c0,-55 -52,-101 -116,-101z"></path> <path class="fil0" d="M20575 7125l0 -39 -1885 0c12,14 19,31 20,49l1815 0 0 39 2 0 0 33 -1 0 0 25c0,31 -16,59 -43,79 -27,23 -67,36 -111,36l-3 0 -1659 -136 0 49 1661 137 26 2 0 -4c16,-1 30,-6 45,-10l-1 11 1 0 -5 33 0 0 -3 24c-4,31 -25,58 -54,76l0 0c-32,20 -73,31 -116,27l-6 0 -1548 -258 0 50 1548 257 25 4 0 -3c6,0 12,-2 19,-3l-8 29 0 0 -7 22c-8,31 -32,56 -64,73 -34,17 -77,24 -120,17l-3 -1 -1390 -353 0 51 1343 341 -12 30 0 -1 -8 19c-12,30 -40,54 -75,68 -36,14 -80,18 -121,7l-5 -1 -1145 -399c-13,16 -31,28 -52,35l981 341 -7 13c-17,29 -48,51 -85,62 -38,11 -82,11 -122,-2l-4 -2 -899 -406 -119 0 769 347 -9 12c-23,27 -58,46 -97,53 -39,7 -83,2 -120,-16l-3 -2 -646 -394 -93 0 536 328 -1 1 1 0 -32 31 -13 11c-28,26 -66,40 -107,43 -40,3 -82,-6 -115,-28l-3 -2 -474 -384 -77 0 425 345 -7 5 1 1 -38 26 -1 0 -13 10c-33,23 -74,33 -114,32 -41,-2 -80,-16 -109,-40l-2 -2 -350 -377 -67 0 346 373 -37 19 -16 9c-36,18 -78,24 -119,18 -39,-6 -76,-23 -99,-51l-1 -1 -250 -367 -59 0 252 371 -20 8 1 1 -51 19 0 0 -17 6c-39,15 -82,16 -120,6 -38,-10 -70,-31 -88,-60l-2 -2 -162 -349 -55 0 175 375 8 17 -11 2 -28 7 1 1 -55 14 0 0 -18 4c-42,11 -85,7 -121,-7 -35,-14 -63,-38 -75,-68l-1 -2 -94 -343 -50 0 98 361 6 23 5 -1c0,1 1,2 2,3 -2,1 -2,2 -4,3 -28,19 -68,30 -112,30 -44,0 -83,-11 -112,-30 -25,-17 -41,-39 -41,-62 0,-4 0,-7 1,-10l1 -5 0 -312 -55 0 0 311 1 5c0,0 0,2 0,5l0 0c0,1 1,3 1,6 0,24 -14,46 -36,63l0 0c-24,18 -57,29 -94,29 -37,0 -71,-11 -95,-29l0 0c-22,-17 -35,-39 -35,-63 0,-1 0,-3 0,-6 0,-3 0,-4 0,-5l1 -4 0 -312 -55 0 0 311 1 4c0,1 0,3 1,6l0 0c0,1 0,3 0,6 0,24 -14,46 -36,63l0 0c-23,18 -57,29 -94,29 -37,0 -71,-11 -94,-29l0 0c-22,-17 -36,-39 -36,-63 0,-1 0,-3 0,-6 0,-3 1,-4 1,-5l0 -4 0 -312 -54 0 0 311 0 4c0,1 1,3 1,6l0 0c0,1 0,3 0,6 0,24 -14,46 -35,63l0 0c-24,18 -57,29 -95,29 -37,0 -70,-11 -94,-29l0 0c-22,-17 -36,-39 -36,-63 0,-4 1,-8 1,-11l0 -4 0 -312 -49 0 0 300c5,26 9,53 12,80 9,19 24,35 42,49l0 0c32,24 76,40 124,40 48,0 92,-16 124,-40l0 0c13,-9 23,-21 32,-33 9,12 19,24 32,33l0 0c32,24 76,40 124,40 48,0 92,-16 124,-40l0 0c13,-9 23,-21 32,-33 9,12 19,24 32,33l0 0c32,24 75,40 124,40 48,0 92,-16 124,-40l0 0c13,-10 24,-22 33,-35 10,13 22,26 38,36 36,24 85,39 139,39 54,0 103,-15 139,-39 4,-2 6,-5 9,-7 18,14 37,27 59,36 40,16 86,21 133,13l0 1 18 -5 101 -25 28 -7 -1 -1 19 -5c19,12 40,22 63,29 42,11 90,11 134,-2l1 1 16 -6 95 -37 3 -1 2 3 4 -2c31,28 71,46 115,53 44,6 91,1 132,-16l1 0 16 -8 65 -34 4 4 15 16 3 -2c35,25 79,38 123,40 44,1 90,-8 129,-31l0 1 15 -10 71 -50 59 48 17 13 2 -2c39,21 85,29 129,26 45,-3 89,-18 123,-44l1 0 13 -12 56 -52 138 85 19 11 1 -2c42,15 89,19 132,11 43,-8 83,-27 113,-56l1 1 12 -16 17 -21 189 85 20 10 2 -3c44,11 91,9 132,-3 41,-12 78,-35 102,-67l1 0 11 -18 12 -20 159 55 22 8 1 -3c46,7 91,1 130,-14 40,-16 73,-42 93,-76l2 0 8 -19 23 -54 14 3 1 -3c46,3 91,-6 128,-24 37,-19 66,-47 82,-82l2 1 6 -23 20 -73c18,-6 36,-13 51,-23l0 0c34,-22 60,-52 71,-88l3 0 3 -24 11 -82 2 -17c6,-3 13,-6 18,-10 31,-24 53,-57 60,-93l2 0 0 -132 -1 0zm-1950 418l0 0 0 -1 0 1zm-7630 -67c0,0 0,0 0,-1 0,1 0,1 0,1l0 0zm80 67l0 -1 0 1zm2861 315l1 4c1,3 1,7 1,11 0,24 -14,46 -36,63 -24,18 -57,29 -94,29 -38,0 -71,-11 -95,-29l0 0c-22,-17 -36,-39 -36,-63 0,-3 0,-5 1,-6l0 0c0,-3 0,-4 1,-6l0 -4 0 -311 -55 0 0 312 1 4c0,0 0,2 1,5 0,3 0,5 0,6 0,24 -14,46 -36,63l0 0c-24,18 -57,29 -94,29 -37,0 -71,-11 -95,-29l0 0c-21,-17 -35,-39 -35,-63 0,-3 0,-5 0,-6l0 0c1,-3 1,-4 1,-6l0 -4 0 -311 -54 0 0 312 0 4c0,0 0,2 1,5 0,3 0,5 0,6 0,24 -14,46 -35,63l0 0c-24,18 -58,29 -94,29 -38,0 -71,-11 -95,-29l0 0c-22,-17 -36,-39 -36,-63 0,-3 0,-5 0,-6l1 0c0,-3 0,-5 0,-5l0 -5 0 -311 -53 0 0 312 0 5c0,3 1,6 1,10 0,23 -16,45 -41,62 -29,19 -68,30 -112,30 -44,0 -84,-11 -112,-30 -1,-1 -3,-2 -4,-3 1,-1 2,-2 3,-3l4 1 6 -23 98 -361 -51 0 -92 343 -2 2c-12,30 -40,54 -75,68 -36,14 -79,18 -121,7l-18 -4 0 0 -55 -14 1 -1 -28 -7 -11 -2 8 -17 175 -375 -55 0 -162 349 -1 2c-19,29 -51,50 -89,60 -38,10 -82,9 -121,-6l-16 -6 0 0 -51 -19 0 -1 -19 -8 252 -371 -60 0 -248 367 -2 1c-24,27 -60,45 -99,51 -40,6 -83,0 -119,-18l-16 -9 -37 -19 346 -373 -67 0 -350 377 -2 2c-29,24 -68,38 -109,40 -40,1 -82,-9 -114,-31l-14 -11 -38 -26 1 -1 -7 -5 425 -345 -78 0 -473 384 -3 2c-33,22 -75,31 -116,28 -40,-3 -79,-17 -106,-43l-12 -11 -1 0 -32 -31 1 0 -1 -1 536 -328 -94 0 -644 394 -4 2c-37,18 -81,23 -120,16 -39,-7 -75,-26 -97,-53l-9 -12 769 -347 -119 0 -899 406 -5 2c-40,13 -83,13 -121,2 -37,-11 -68,-33 -85,-62l-7 -13 980 -341c-20,-7 -38,-19 -51,-35l-1145 399 -5 1c-41,11 -85,7 -121,-7 -35,-14 -63,-38 -75,-68l-9 -19 0 1 -12 -30 1344 -341 0 -51 -1390 353 -3 1c-43,7 -86,0 -120,-17 -32,-17 -56,-42 -65,-73l-6 -22 -7 -29c6,1 11,3 18,3l0 3 25 -4 1548 -257 0 -50 -1548 258 -6 0c-44,4 -85,-7 -116,-27l0 0c-29,-19 -50,-45 -54,-76l-3 -24 -5 -33 1 0 -1 -11c14,4 29,9 45,10l0 4 26 -2 1661 -137 0 -49 -1659 136 -4 0c-43,0 -82,-13 -111,-36 -26,-20 -43,-48 -43,-79l0 -25 0 -33 2 0 0 -39 1815 0c1,-18 8,-35 20,-49l-1885 0 0 39 -1 0 0 132 3 0c7,36 28,69 59,93 5,4 12,7 18,10l2 17 11 82 4 24 2 0c11,36 37,66 71,88 15,10 33,17 51,23l20 73 6 23 2 -1c16,35 45,63 82,82 37,18 82,28 128,24l1 3 14 -3 23 54 8 19 2 0c20,34 53,60 93,76 39,15 85,21 130,14l0 3 23 -8 160 -55 11 20 10 18 2 0c25,32 61,55 102,67 41,12 88,14 132,3l2 3 20 -10 189 -85 17 21 12 16 1 -1c30,29 70,48 113,56 43,8 90,4 131,-11l3 2 18 -11 139 -85 56 52 12 12 1 -1c34,27 78,42 123,45 44,3 89,-5 129,-26l2 2 17 -13 59 -48 71 50 14 10 1 -1c39,23 84,32 129,31 44,-2 88,-15 123,-40l3 2 15 -16 4 -4 65 34 16 8 1 0c41,17 88,22 132,16 43,-7 84,-25 115,-53l4 2 2 -3 2 1 96 37 16 6 1 -1c44,13 92,13 134,2 23,-7 44,-17 63,-29l19 5 -1 1 28 7 101 25 18 5 1 -1c46,8 92,3 132,-13 22,-9 42,-22 59,-37 2,3 5,6 9,8 36,24 85,39 139,39 54,0 103,-15 139,-39 16,-10 28,-23 38,-36 9,13 20,25 33,35l0 0c32,24 76,40 125,40 47,0 91,-16 123,-40l1 0c12,-9 23,-21 31,-33 9,12 19,24 32,33l0 0c32,24 76,40 124,40 48,0 92,-16 124,-40l0 0c13,-9 23,-21 32,-33 9,12 19,24 31,33l1 0c32,24 76,40 124,40 48,0 92,-16 124,-40l0 0c18,-14 32,-30 42,-49 3,-27 7,-54 12,-80l0 -300 -50 0 0 312z"></path> <path class="fil0" d="M15561 8574l0 0 1 -1c0,0 0,0 0,0l-1 1 0 0 0 0zm-1 1c0,0 0,1 -1,1l0 0 1 -1zm-110 378c-26,18 -56,29 -89,29 -40,0 -77,-17 -104,-43 -26,-24 -44,-56 -51,-92 61,-27 119,-59 173,-98 42,-31 81,-64 117,-101 0,16 0,32 0,49 -1,37 -1,75 -1,113 0,13 1,27 4,41 0,0 0,0 0,1 0,2 1,5 2,7 1,8 3,15 4,23 -12,29 -31,53 -55,71zm9046 -1838l-487 -1 -3459 0 0 35 1 0 0 15 3458 0 462 1c-6,117 -57,224 -135,302 -81,81 -193,132 -316,135 -849,-93 -1694,-170 -2539,-246 -317,-28 -634,-57 -937,-85 0,1 0,1 -1,1 -6,17 -17,33 -30,46l3494 334 2 0 0 0c4,0 7,-1 10,-1 71,8 143,15 214,23 -19,123 -80,230 -167,304 -83,70 -190,109 -303,105l-334 -71 -2960 -630 -2 7 -4 32 -1 10 -1 7 3259 694 1 0 2 0c0,0 0,0 4,1l0 0c10,1 19,-1 29,0l114 24c-30,114 -102,208 -195,268 -99,64 -222,91 -346,65l-97 -31 -3 -1 -1 0 -2688 -845 -167 -52c-12,6 -25,10 -40,14l-1 4 1 0 -5 19 2885 907 1 0 34 12c-42,116 -123,206 -223,259 -102,54 -223,69 -341,32 -4,-1 -7,-2 -10,-3l-2398 -1086c-9,8 -20,14 -30,20 -13,8 -25,16 -39,21l1712 763 422 188c-53,105 -143,182 -246,221 -111,43 -237,43 -353,-8l-1776 -1003c-19,8 -40,12 -61,14 -5,0 -9,1 -13,1l1547 874c-72,87 -174,145 -283,169 -118,25 -246,10 -359,-50l-865 -576 -618 -412 -127 -57 -16 21 1374 915c-76,89 -182,144 -293,160 -119,17 -246,-9 -351,-83l-13 -12 -23 -19 -1130 -973 -37 33 1111 957c-86,58 -188,86 -289,82 -109,-3 -219,-42 -306,-118l-884 -931 -40 29 0 0 740 780c5,43 1,86 -13,123 -15,37 -39,69 -72,92 -55,38 -128,45 -200,26 -74,-19 -147,-66 -201,-136 -3,-5 -7,-11 -11,-16 -4,-5 -8,-11 -11,-16l0 0 0 0 -86 -141 0 0 0 -1 -441 -725 -13 7 0 0 -23 13 -7 3 -14 8 160 233 292 480c12,62 8,122 -13,173 -20,49 -55,89 -103,111 -61,29 -133,24 -200,-6 -67,-31 -130,-90 -170,-167 -3,-6 -6,-12 -8,-18l0 0c-3,-5 -5,-10 -8,-17l0 0 0 0 -298 -788 -30 12c-5,1 -11,3 -16,5l0 0 298 788 0 1c1,0 1,1 1,2 2,3 2,5 4,8 0,1 0,2 1,3 -8,49 -27,93 -56,127l0 1c-27,34 -64,59 -108,71 -66,18 -138,2 -198,-39 -62,-42 -114,-109 -139,-192l-1 0c-3,-12 -7,-25 -9,-38l0 0 -133 -722 -2 1 0 -1c-15,5 -31,7 -47,7l134 725 0 0c3,14 6,28 11,42l0 0c0,3 2,6 3,10 0,0 0,1 1,2 -15,52 -40,98 -74,131 -33,33 -73,55 -118,60 -65,7 -127,-21 -175,-71 -24,-24 -43,-56 -60,-91 1,-5 2,-11 2,-17 -13,-264 -1,-537 -1,-801 -17,1 -34,-1 -49,-7l0 810c13,248 -314,227 -288,-14l0 -783 0 0 0 -4c-12,1 -24,0 -35,0 -4,-1 -9,0 -14,-2l0 2 -1 0 -1 821c0,212 -234,216 -275,51 -1,-6 -3,-13 -4,-19 -2,-11 -3,-21 -3,-32 0,-4 0,-8 1,-11l0 0c0,-5 0,-9 0,-11l0 -2 0 -796 0 0c-1,0 -3,0 -3,0 -17,0 -32,-2 -46,-5l-1 825c0,11 1,23 2,35 1,1 1,3 2,4 1,8 2,15 4,23 -11,31 -29,59 -52,79 -24,19 -53,31 -83,31 -40,0 -75,-19 -102,-50 -27,-31 -43,-75 -43,-122 0,-8 0,-16 1,-22l0 -2 0 -796c-9,0 -18,-2 -27,-4 -9,-1 -19,-2 -27,-5 0,66 0,131 0,197 0,210 1,421 1,632 0,47 -17,91 -44,122 -27,31 -62,50 -102,50 -39,0 -75,-19 -101,-50 -17,-20 -30,-45 -37,-73 -1,-6 -3,-10 -3,-16 -3,-11 -4,-22 -4,-33 0,-4 0,-8 1,-11l0 0c0,-5 0,-9 0,-11l0 -2 0 -193c2,-2 3,-3 4,-4l0 0c0,0 0,0 0,0l4 -5 0 0 0 0 1 0 -1 -1c4,-4 7,-9 11,-14l-1 3 5 -7 0 -1c55,-72 100,-152 132,-237 35,-98 55,-203 55,-312 0,-32 -2,-64 -5,-96 -8,-14 -12,-30 -12,-46 0,-5 0,-10 1,-15l0 -14c-8,-41 -19,-81 -32,-120 -18,-53 -42,-105 -69,-153l101 0 0 -25 307 0 0 25 4 0 0 -25 181 0c-1,-8 -1,-16 0,-24l-623 0c-5,-8 -11,-16 -17,-24 -7,-12 -15,-23 -25,-35l-7 -9 -62 0 30 40c1,0 2,1 2,2 56,73 101,155 131,244 30,86 46,179 46,275 0,104 -19,203 -53,294 -35,96 -86,183 -151,260 -45,52 -96,99 -152,140 -55,40 -116,74 -180,100l-17 7 1 18c6,55 31,105 68,140 37,36 86,57 139,57 44,0 84,-14 117,-38 21,-16 38,-35 52,-57 7,10 13,20 21,29 35,41 84,66 138,66 55,0 104,-25 139,-66 13,-16 24,-34 32,-52 9,18 20,36 33,52 35,41 84,66 139,66 42,0 82,-16 114,-43 18,-15 33,-34 45,-55 76,125 263,125 326,-15 77,136 290,133 347,-37 12,17 23,35 38,49 58,61 135,94 215,85 56,-6 107,-32 148,-73 28,-28 49,-65 66,-104 32,60 76,110 127,145 72,49 158,68 239,46 54,-15 99,-46 133,-88l1 0c22,-29 38,-63 50,-99 45,70 106,125 173,156 79,36 166,41 241,6 60,-28 103,-77 128,-137 12,-31 20,-66 22,-101l35 58 0 0c4,6 9,12 13,18 4,6 8,12 13,18 61,79 143,132 227,154 85,23 172,13 240,-34 42,-29 72,-69 90,-115 10,-27 15,-57 17,-88l100 106 1 1 0 0c97,84 217,127 337,131 116,3 232,-31 329,-100l24 20 2 2c115,82 255,111 386,92 124,-19 241,-82 326,-183l186 124 1 1 1 1c123,66 264,82 393,55 124,-27 236,-94 315,-193l237 134 1 0 2 0c128,58 268,57 391,11 115,-45 214,-132 273,-251l271 123 0 0 2 0c5,2 8,4 11,5 131,40 265,24 379,-37 111,-58 201,-159 247,-288l20 6 1 1 1 0 1 0c137,29 274,-1 384,-72 110,-71 193,-184 222,-322l0 -1 5 -24 -20 -4c69,-20 134,-53 189,-100 100,-85 170,-210 186,-355l0 0c0,0 0,-1 1,-5l2 -24 -24 -3c-26,-3 -53,-6 -79,-9 70,-26 134,-65 187,-117 92,-93 150,-221 150,-362l0 -25 -25 0zm-8937 1461l0 0 -1 2c0,-1 0,-1 1,-2zm-5 6l0 1 0 -1c0,0 0,0 0,0l2 -1c-1,0 -1,1 -1,1l-1 0zm9 -9l0 -1 0 0c0,0 0,0 0,1zm-7 7l0 0 0 0 0 1 0 -1zm1 -1l0 1 -1 0 1 -1zm-1413 1l0 1 0 -1 0 0zm300 359c-28,26 -65,43 -106,43 -32,0 -63,-11 -88,-29 -24,-18 -44,-42 -56,-71 2,-8 4,-15 6,-23 0,-2 0,-5 1,-7 0,-1 0,-1 0,-1 3,-14 4,-28 4,-41 0,-38 0,-76 -1,-113 0,-17 0,-33 0,-49 36,37 75,71 117,101 53,39 111,71 173,98 -8,36 -26,68 -50,92zm-94 -230c-57,-41 -108,-88 -153,-140 -64,-77 -116,-164 -151,-260 -34,-91 -52,-190 -52,-294 0,-96 16,-189 46,-275 30,-89 75,-171 131,-244 1,-1 1,-2 2,-2l30 -40 -62 0 -8 9c-8,12 -17,23 -25,35 -5,8 -10,16 -16,24l-623 0c1,8 1,16 0,24l181 0 0 25 4 0 0 -25 307 0 0 25 101 0c-27,48 -50,100 -69,153 -13,39 -24,79 -32,120l0 14c1,5 2,10 2,15 0,16 -5,32 -13,46 -4,32 -5,64 -5,96 0,109 19,214 55,312 32,85 77,165 132,237l0 1 5 7 -1 -3c4,5 7,10 11,15l0 0c0,0 0,0 0,0l0 0 0 0 4 5c0,0 0,0 0,0l0 0c1,1 2,3 3,4l0 193 0 2c1,2 1,6 1,11l0 0c0,3 0,7 0,11 0,11 -1,23 -2,34 -1,3 -3,7 -3,10 -7,31 -20,57 -38,78 -26,31 -63,50 -101,50 -40,0 -76,-19 -102,-50 -27,-31 -43,-75 -43,-122 0,-211 0,-422 0,-632 0,-66 0,-131 0,-197 -9,3 -19,4 -28,5 -9,2 -16,4 -26,4l0 796 0 2c1,6 1,14 1,22 0,47 -17,91 -43,122 -26,31 -63,50 -102,50 -31,0 -59,-12 -83,-31 -23,-20 -41,-47 -52,-79 2,-8 3,-15 5,-23 0,-1 0,-3 0,-4 2,-12 3,-24 3,-35l-1 -825c-14,3 -28,5 -44,5 -2,0 -3,0 -5,0l-1 0 0 796 0 2c1,2 1,6 1,11l0 0 1 0c0,3 0,7 0,11 0,11 -2,21 -3,31 -1,7 -3,14 -4,20 -41,165 -276,161 -276,-51l0 -821 -1 0 0 -2c-4,2 -9,1 -14,2 -12,0 -23,1 -34,0l0 4 -1 0 0 783c27,241 -301,262 -289,14l1 -810c-16,6 -32,8 -49,7 0,264 13,537 -1,801l0 0c0,6 1,12 1,17 -16,35 -35,67 -59,91 -48,50 -111,78 -175,71 -45,-5 -85,-27 -118,-60 -33,-33 -59,-79 -74,-131 1,-1 1,-2 2,-2 0,-4 1,-7 2,-10l0 0c5,-14 8,-28 11,-42l0 0 134 -725c-16,0 -31,-2 -47,-7l0 1 -2 -1 -133 722 0 0c-3,13 -6,26 -10,38l0 0c-25,83 -77,150 -139,192 -60,41 -132,57 -198,39 -44,-12 -81,-37 -109,-71l0 -1c-28,-34 -47,-78 -55,-127 0,-1 1,-2 1,-3 1,-3 3,-6 4,-9 0,0 0,-1 0,-1l0 -1 299 -788 0 0c-5,-2 -11,-4 -17,-5l0 0 -29 -12 -298 788 -1 0 0 0c-2,7 -4,12 -7,17l0 0c-2,6 -5,12 -8,18 -40,77 -103,136 -170,167 -67,30 -139,35 -200,6 -48,-22 -83,-62 -103,-111 -21,-51 -25,-111 -13,-173l274 -450 17 -29 161 -234 -44 -24 -13 -7 -145 239 0 0 -27 43 -268 442 -2 2 0 0 -85 141 0 0 0 0c-3,5 -7,11 -11,16 -4,5 -8,11 -12,16 -54,70 -127,117 -200,136 -72,19 -145,12 -200,-26 -34,-23 -58,-55 -72,-92 -14,-37 -18,-80 -13,-123l741 -780 0 0 -41 -29 -885 931c-87,76 -196,115 -305,118 -102,3 -204,-24 -290,-82l1112 -957 -19 -16 -17 -17 -1131 973 -23 19 -14 12c-105,74 -231,100 -350,83 -111,-16 -217,-71 -294,-160l1375 -915 -17 -21 -126 57 -304 203 -1180 785c-112,60 -240,75 -358,50 -110,-24 -211,-82 -283,-169l37 -21 1510 -853c-5,0 -10,-1 -16,-2 -20,-2 -40,-5 -58,-13l0 0 -1776 1003c-116,51 -242,51 -352,8 -104,-39 -193,-116 -247,-221l422 -188 1713 -763c-16,-5 -28,-13 -40,-21 -11,-7 -22,-12 -30,-20l-2398 1086c-3,1 -6,2 -11,3 -117,37 -238,22 -340,-32 -100,-53 -181,-143 -223,-259l34 -12 0 0 2885 -907 -4 -19 1 0 -1 -4c-15,-4 -28,-8 -40,-14l-1 0 -2855 897 0 0 -3 1 -97 31c-124,26 -248,-1 -346,-65 -93,-60 -165,-154 -196,-268l114 -24c10,-1 20,1 30,0l0 0c4,-1 4,-1 5,-1l1 0 1 0 3259 -694 -5 -36 -2 -20 -2961 630 -334 71c-113,4 -220,-35 -303,-105 -87,-74 -149,-181 -167,-304 71,-8 143,-15 214,-23 3,0 6,1 10,1l0 0 2 0 3494 -334c-14,-13 -24,-29 -31,-46l0 0 0 -1c-303,28 -620,57 -937,85 -845,76 -1690,153 -2539,246 -123,-3 -235,-54 -316,-135 -78,-78 -129,-185 -135,-302l462 -1 3458 0 0 -15 1 0 0 -35 -3459 0 -488 1 -24 0 0 25c0,141 58,269 150,362 52,52 116,91 188,117 -27,3 -54,6 -80,9l-24 3 2 24c1,4 1,5 1,5l0 0c16,145 86,270 186,355 55,47 120,80 189,100l-21 4 6 24 0 1c29,138 112,251 222,322 110,71 247,101 384,72l0 0 1 0 1 0 1 -1 20 -6c47,129 136,230 247,288 113,60 248,77 378,37 3,-1 7,-3 12,-4l2 -1 1 0 269 -123c60,119 158,206 274,251 122,46 263,47 392,-10l1 -1 1 0 237 -134c79,99 192,166 315,193 129,27 269,11 393,-55l1 -1 1 -1 186 -124c85,101 201,164 326,183 131,19 270,-10 386,-92l1 0 1 -2 24 -20c97,69 213,103 328,100 121,-4 241,-47 338,-131l0 0 1 -1 101 -106c1,31 6,61 16,88 18,46 48,86 90,115 68,47 155,57 241,34 83,-22 165,-75 226,-154 5,-6 10,-12 13,-18 4,-6 8,-12 12,-18l1 0 35 -58c2,35 10,70 22,101 25,60 68,109 128,137 75,35 161,30 241,-6 67,-31 128,-86 173,-156 12,36 27,70 50,99 34,42 80,73 134,88 81,22 167,3 239,-46 51,-35 95,-85 127,-145 17,39 38,76 66,104 41,41 91,67 148,73 80,9 157,-24 216,-85 13,-14 25,-32 37,-49 57,170 270,173 346,37 64,140 251,140 326,15 13,21 28,40 46,55 32,27 72,43 114,43 54,0 103,-25 139,-66 13,-16 24,-34 32,-53 9,19 20,37 33,53 35,41 84,66 139,66 54,0 103,-25 138,-66 8,-9 14,-19 21,-29 14,22 30,42 51,57 34,24 74,38 117,38 54,0 103,-21 140,-57 37,-35 62,-85 67,-140l3 -18 -18 -7c-64,-26 -125,-60 -180,-100zm-211 -135l0 0 0 0 0 0c0,0 0,0 0,0zm0 -1l-1 0 0 0c0,-1 0,-1 0,-1l-1 0 2 2 0 -1zm4 6l1 1 0 0 -1 -1zm3 4l0 -1 -1 0c0,-1 -1,-1 -1,-1l1 1 1 1zm-6 -7l2 2c0,-1 -1,-1 -1,-2l-1 0z"></path> <path class="fil0" d="M14812 5731l0 49c2,0 4,-1 4,-1 12,0 24,-1 36,-1 12,0 23,1 34,1 2,0 3,1 5,1l0 -49c0,-13 12,-25 25,-25 11,0 20,-4 28,-11 7,-7 11,-17 11,-28 0,-11 -4,-21 -11,-28 -8,-7 -17,-12 -28,-12 -13,0 -25,-12 -25,-24l0 -12c0,-10 -4,-20 -11,-27 -7,-7 -17,-12 -28,-12 -11,0 -21,5 -28,12 -7,7 -12,17 -12,27l0 12c0,12 -12,24 -24,24 -11,0 -21,5 -28,12 -7,7 -12,17 -12,28 0,11 5,21 12,28 7,7 17,11 28,11 12,0 24,12 24,25zm-49 77l0 -56c-14,-4 -27,-12 -38,-22l0 -1c-16,-16 -26,-38 -26,-62 0,-25 10,-47 26,-63l0 0c11,-10 24,-18 38,-22 3,-21 12,-39 26,-53l0 0c16,-16 39,-26 63,-26 24,0 46,10 62,26l0 0c14,14 23,32 26,53 15,4 28,12 38,22l0 0c17,16 26,38 26,63 0,24 -9,47 -26,62l0 1c-10,10 -23,18 -38,22l0 56c0,14 -14,26 -28,24 -9,-1 -19,-3 -30,-3 -11,-1 -21,-2 -30,-2 -10,0 -20,1 -31,2 -11,0 -21,2 -29,3 -15,2 -29,-10 -29,-24l0 0zm49 167l0 106c13,-4 26,-6 40,-6 14,0 27,2 39,6l0 -106c-3,-1 -7,-1 -10,-2 -10,-1 -19,-1 -29,-1 -10,-1 -20,0 -30,1 -3,1 -6,1 -10,2l0 0zm-476 301l0 0c0,0 0,0 0,0l0 0zm24 -26l60 0c0,-1 0,-3 0,-5 -1,-10 -1,-22 -1,-34 0,-12 0,-24 1,-34 0,-2 0,-4 0,-6l-60 0c-12,0 -24,-12 -24,-24 0,-11 -5,-20 -12,-27 -7,-7 -17,-12 -28,-12 -10,0 -20,5 -27,12 -7,7 -12,16 -12,27l0 1c0,12 -12,24 -25,24 -11,0 -20,5 -27,12 -8,7 -12,17 -12,28 0,11 4,21 12,28 7,7 17,11 27,11 13,0 25,13 25,25 0,11 5,21 12,28 7,7 17,12 27,12 11,-1 21,-5 28,-12l0 0c7,-7 12,-17 12,-28 0,0 0,0 0,0l0 -1 0 0c0,-12 12,-25 24,-25l0 0zm88 50l-66 0c-4,14 -12,28 -23,39l0 0c-16,16 -38,26 -63,26 -24,0 -46,-10 -62,-26l0 0c-11,-12 -19,-26 -24,-41 -15,-4 -29,-12 -40,-24 -16,-16 -26,-38 -26,-62 0,-25 10,-47 26,-63l0 0c11,-11 25,-19 40,-23 5,-16 13,-30 24,-41 16,-16 38,-26 62,-26 25,0 47,10 63,26 10,10 18,23 22,37l67 0c14,0 27,15 24,29 -1,8 -2,18 -3,30 -1,10 -1,21 -1,30 0,10 0,20 1,31 1,11 2,21 3,29 2,14 -10,29 -24,29l0 0zm167 -50l106 0c-3,-12 -5,-25 -5,-39 0,-13 2,-27 6,-40l-106 0c-1,4 -2,7 -2,11 -2,9 -2,19 -2,29 0,10 0,20 2,29 0,4 1,7 1,10l0 0zm276 855l0 -462c-2,0 -3,0 -5,0 -11,1 -22,2 -34,2 -12,0 -24,-1 -35,-2 0,0 -3,0 -5,0l0 462 79 0zm49 -490l0 515c0,12 -12,24 -24,24l-128 0c-12,0 -25,-12 -25,-24l0 -515c0,-14 14,-26 28,-24 9,1 19,2 30,3 11,1 21,1 31,1 9,0 19,0 30,-1 11,-1 21,-2 30,-3 14,-2 28,10 28,24l0 0zm-49 -167l0 -106c-12,4 -25,6 -39,6 -14,0 -27,-2 -40,-6l0 106c4,0 7,1 10,1 10,2 20,2 30,2 10,0 19,0 29,-2 3,0 7,0 10,-1l0 0zm29 -169c-1,-6 0,-13 3,-18 6,-7 9,-15 12,-24 2,-8 4,-17 4,-26 0,-9 -2,-18 -4,-26l0 0c-3,-9 -7,-17 -12,-24 -4,-5 -5,-11 -4,-17 -6,1 -12,0 -17,-4 -7,-5 -15,-9 -24,-12 -8,-2 -17,-4 -26,-4 -9,0 -18,2 -26,4l0 0c-9,3 -17,7 -24,12 -5,4 -11,5 -17,5 1,5 0,11 -4,16 -5,7 -9,15 -12,24l0 0c-3,8 -4,17 -4,26 0,9 1,18 4,26 2,9 6,17 11,24 4,5 6,12 4,18 6,-1 13,0 18,4 7,5 15,9 24,11l0 0c8,3 17,4 26,4 9,0 18,-1 26,-4 9,-2 17,-6 24,-11 5,-4 12,-5 18,-4l0 0zm62 -29l106 0c1,-3 2,-6 2,-9 1,-10 2,-20 2,-30 0,-10 -1,-20 -2,-29 -1,-4 -1,-7 -2,-11l-106 0c4,13 6,26 6,40 0,14 -2,27 -6,39l0 0zm126 50l-164 0c0,0 -3,0 -4,0 0,1 0,2 0,3l0 165c0,9 -9,22 -18,24 -12,3 -23,5 -35,6 -12,2 -23,2 -35,2 -12,0 -24,0 -35,-2 -12,-1 -24,-3 -35,-6 -9,-3 -19,-15 -19,-24l0 -165c0,-1 0,-2 0,-3 -1,0 -2,0 -2,0l-166 0c-9,0 -22,-10 -24,-19 -3,-12 -4,-23 -6,-35l0 0c-2,-11 -2,-23 -2,-35 0,-11 0,-24 2,-35 2,-12 4,-23 6,-35 3,-9 15,-19 24,-19l166 0 1 0c1,-1 1,-1 1,-2l0 -165c0,-10 10,-22 19,-24 11,-3 23,-5 35,-6 11,-2 23,-3 35,-3 12,0 23,1 35,3 12,1 23,3 35,6 9,2 18,14 18,24l0 165c0,1 0,1 0,2l3 0 165 0c10,0 22,10 24,19 3,11 5,23 7,35 1,11 2,24 2,35 0,12 -1,24 -2,35l0 0c-2,12 -4,23 -6,35 -3,9 -15,19 -25,19l0 0zm260 -24c0,0 0,0 0,0 0,0 0,0 0,0l0 0zm125 21c-4,16 -12,30 -23,42l0 0c-17,16 -39,26 -63,26 -24,0 -46,-10 -62,-26l-1 0c-10,-11 -18,-25 -22,-39l-66 0c-15,0 -27,-15 -25,-29 2,-8 3,-18 3,-29 1,-11 2,-21 2,-31 0,-9 -1,-20 -2,-30 0,-12 -1,-22 -3,-30 -2,-14 10,-29 24,-29l67 0c4,-14 13,-27 23,-37 16,-16 38,-26 62,-26 24,0 46,10 62,26 12,11 20,25 24,41 16,4 30,12 41,23 15,17 25,39 25,63 0,24 -10,46 -25,62 -11,11 -25,20 -41,23l0 0zm-46 -21l0 0c0,-12 12,-25 24,-25 11,0 21,-4 28,-11 7,-8 11,-17 11,-28 0,-11 -5,-21 -11,-28 -7,-7 -17,-12 -28,-12 -12,0 -24,-12 -24,-24l0 -1c-1,-11 -5,-20 -12,-27 -7,-7 -17,-12 -28,-12 -11,0 -21,5 -28,12 -7,7 -11,16 -11,27 0,12 -13,24 -25,24l-60 0c1,2 1,4 1,6l0 0c1,11 1,22 1,34 0,12 0,24 -1,34 0,2 0,4 -1,5l60 0c12,0 25,13 25,25l0 0 0 1c0,0 0,0 0,0 0,11 4,21 11,28l0 0c7,7 17,12 28,12 11,-1 21,-5 28,-12 7,-7 12,-17 12,-28l0 0z"></path> <path class="fil0" d="M15488 8654c-164,164 -390,266 -639,266 -249,0 -475,-102 -639,-266 -164,-163 -265,-390 -265,-639 0,-249 101,-475 265,-639 164,-163 390,-265 639,-265 249,0 475,102 639,265 164,164 266,390 266,639 0,249 -102,476 -266,639zm-639 217c236,0 450,-97 604,-251 156,-156 251,-369 251,-605 0,-235 -96,-449 -251,-604 -154,-155 -368,-251 -604,-251 -235,0 -450,96 -604,251 -155,155 -251,369 -251,604 0,236 96,450 251,605 154,154 369,251 604,251l0 0z"></path> <path class="fil0" d="M14913 6273c-16,16 -37,25 -61,25 -24,0 -46,-9 -62,-25 -16,-16 -25,-38 -25,-62 0,-24 9,-45 25,-61 16,-16 38,-26 62,-26 24,0 45,10 61,26 16,16 26,37 26,61 0,24 -10,46 -26,62zm35 -158c-25,-25 -59,-40 -96,-40 -38,0 -72,16 -96,40 -25,25 -40,59 -40,96 0,38 15,72 40,97 24,24 58,40 96,40 37,0 71,-16 96,-40 25,-25 40,-59 40,-97 0,-37 -15,-71 -40,-96z"></path> <path class="fil0" d="M14926 7992l0 -194 363 0 -111 194 -252 0zm0 442l0 -288 164 0 -164 288zm-1 -289l-152 0 0 -152 152 0 0 152zm-153 -153l-251 0 -111 -194 362 0 0 194zm0 442l-163 -288 163 0 0 288zm-29 -988c0,-59 47,-108 106,-108 59,0 107,49 107,108 0,63 -50,159 -106,196l0 0 -1 0c0,0 -1,0 -1,-1 -56,-42 -105,-124 -105,-195zm190 247c65,-57 111,-170 111,-247 0,-107 -88,-195 -195,-195 -107,0 -194,88 -194,195 0,77 45,190 111,247l-542 0 313 543 312 543 313 -543 312 -543 -541 0z"></path> <path class="fil0" d="M16779 6595l-173 -254c-3,-4 -15,-10 -21,-10l-22 0c-13,0 -25,12 -25,25l0 239 -107 0 0 -625 149 0c26,0 51,1 72,2 21,2 38,5 51,8 15,3 27,8 39,13 12,5 23,12 34,20l0 0c11,8 21,16 29,26 9,10 16,20 22,32 6,11 10,23 14,35 2,12 4,24 4,37 0,19 -2,37 -8,54 -4,15 -11,30 -20,45 -9,13 -21,26 -35,37 -14,11 -30,21 -48,29 -14,6 -18,24 -10,36l178 251 -123 0zm1 -256c12,-7 23,-14 33,-22 18,-14 32,-30 44,-48l0 0c13,-18 22,-38 28,-59 6,-21 9,-43 9,-67 0,-16 -2,-32 -6,-48 -4,-17 -10,-32 -18,-47 -7,-15 -16,-29 -28,-41 -11,-13 -23,-24 -37,-34l0 0c-13,-10 -27,-18 -43,-25 -15,-7 -31,-12 -47,-16 -17,-4 -37,-7 -59,-9 -22,-1 -47,-2 -76,-2l-174 0c-12,0 -24,12 -24,24l0 675c0,12 12,25 24,25l157 0c12,0 25,-13 25,-25l0 -218 157 232c4,4 16,11 21,11l183 0c20,0 32,-23 21,-39l-190 -267zm-88 -149c-4,8 -10,15 -17,21 -8,6 -18,11 -31,14 -13,4 -29,5 -47,5l-9 0 0 -137 1 0c22,0 40,1 56,4 13,3 24,7 32,13l0 0c6,4 11,10 15,18 3,8 5,19 5,32 0,12 -2,22 -5,30zm55 -30c0,-20 -4,-37 -10,-52 -7,-16 -18,-29 -32,-39 -13,-9 -30,-15 -50,-20 -19,-4 -41,-6 -66,-6l-26 0c-13,0 -25,13 -25,25l0 187c0,12 12,25 25,25l34 0c22,0 42,-3 60,-7 18,-5 35,-13 48,-23l0 0c14,-11 24,-24 31,-40 7,-15 11,-31 11,-50zm-5194 435l-36 -83c-3,-7 -15,-15 -23,-15l-274 0c-7,0 -19,8 -22,15l-38 83 -106 0 310 -625 302 625 -113 0zm-162 -682c-3,-6 -15,-14 -22,-14l-10 0c-7,0 -20,8 -22,14l-344 696c-8,16 4,36 22,36l162 0c7,0 20,-8 22,-15l37 -84 242 0 36 84c3,7 16,15 23,15l169 0c17,0 29,-20 22,-36l-337 -696zm17 468l-104 0 52 -123 52 123zm-74 -196l-90 211c-6,16 6,34 23,34l177 0c17,0 29,-18 23,-34l-88 -211c-7,-19 -36,-20 -45,0zm7151 361c-11,7 -21,13 -32,18 -15,7 -30,12 -46,17l0 0c-16,5 -32,9 -49,11 -16,2 -33,3 -51,3 -37,0 -72,-5 -106,-17 -17,-6 -33,-13 -49,-21 -15,-8 -30,-18 -45,-30 -20,-16 -38,-33 -53,-53 -16,-19 -29,-40 -40,-63l0 0c-10,-23 -18,-47 -24,-72 -5,-25 -8,-51 -8,-78 0,-24 2,-47 6,-69 4,-21 10,-43 18,-63l0 0c8,-21 18,-40 29,-58 12,-18 25,-34 40,-50 15,-16 32,-29 49,-41 18,-12 37,-22 57,-30 20,-9 41,-15 62,-19 21,-4 43,-6 65,-6 18,0 36,1 52,4l1 0c16,2 32,6 48,11l0 0c16,5 32,11 47,18 11,5 23,12 33,19l-10 108c-4,-2 -7,-5 -10,-7 -16,-12 -33,-23 -49,-30l0 0c-17,-8 -33,-14 -51,-19 -18,-4 -36,-6 -54,-6 -32,0 -61,6 -87,17 -27,11 -51,28 -71,51l0 -1c-21,22 -36,48 -46,76 -10,28 -15,59 -15,93 0,33 5,64 15,92 10,28 25,53 45,75 21,21 45,38 71,49 27,11 56,16 88,16 37,0 74,-8 112,-23 18,-8 36,-17 54,-29 4,-2 7,-4 10,-7l-6 114zm18 -184c-16,14 -32,26 -48,36 -16,10 -31,18 -47,25 -31,12 -62,19 -93,19 -25,0 -49,-4 -69,-13 -20,-8 -38,-20 -54,-37 -15,-16 -27,-36 -35,-58 -8,-22 -12,-47 -12,-75 0,-28 4,-54 12,-76 8,-22 20,-42 36,-59l0 0c16,-17 34,-30 53,-39 21,-8 44,-13 69,-13 15,0 29,2 43,5 14,4 27,8 41,15l0 0c13,6 26,15 40,25 14,10 28,23 41,37 15,14 41,5 43,-15l17 -173c0,-6 -6,-19 -11,-22 -16,-12 -34,-22 -51,-30 -18,-9 -36,-16 -54,-22l0 1c-19,-6 -37,-10 -57,-13 -19,-3 -39,-4 -59,-4 -25,0 -50,2 -75,7 -24,5 -47,12 -71,21 -23,10 -45,21 -65,35 -20,14 -39,30 -57,48l0 0c-18,18 -33,37 -46,58 -13,21 -25,43 -34,66l0 0c-9,23 -16,48 -20,73 -5,25 -7,51 -7,77 0,30 3,60 9,88 7,29 16,56 28,83l0 0c12,26 28,51 45,73l0 0c18,22 39,43 62,61 16,13 33,24 52,34 18,10 37,18 56,25 39,13 80,20 122,20 20,0 39,-2 58,-4 19,-3 38,-7 56,-13l0 0c18,-5 36,-12 53,-20 17,-8 33,-17 49,-28 3,-2 10,-14 10,-19l11 -179c1,-20 -25,-33 -41,-20zm-5196 209l-54 -288c-3,-22 -35,-26 -45,-8l-165 304 -179 -309c-10,-19 -41,-13 -45,8l-56 293 -93 0 124 -619 231 398c10,17 34,16 43,0l216 -397 126 618 -103 0zm-9 -697l-12 0c-6,0 -18,7 -21,13l-219 401 -233 -402c-3,-5 -15,-12 -21,-12l-12 0c-10,0 -22,10 -24,20l-140 697c-3,14 9,29 24,29l144 0c9,0 22,-10 24,-20l47 -248 161 280c3,6 15,13 21,13l11 0c6,0 19,-8 22,-13l148 -272 44 240c2,10 14,20 24,20l153 0c16,0 28,-15 25,-29l-141 -697c-3,-10 -15,-20 -25,-20zm1723 507l0 0c-43,43 -103,70 -169,70 -66,0 -126,-27 -170,-70l0 0c-43,-44 -70,-103 -70,-170 0,-66 27,-126 70,-169l0 0c44,-43 104,-70 170,-70 66,-1 126,27 169,70l0 0c44,43 71,103 71,169 0,66 -27,126 -71,170zm35 -374c-52,-52 -125,-85 -204,-85 -80,0 -152,33 -204,85l-1 0c-52,52 -84,125 -84,204 0,80 32,152 84,205l1 0c52,52 124,84 204,84 79,0 152,-32 204,-84l0 0c52,-53 85,-125 85,-205 0,-79 -33,-151 -85,-204l0 0zm68 476l0 0c-70,69 -166,112 -272,112 -106,0 -202,-43 -272,-112l0 0c-69,-70 -112,-166 -112,-272 0,-105 43,-201 112,-271l0 0c70,-70 166,-113 272,-113 106,0 202,43 272,113l0 0c69,69 112,166 112,271 0,106 -43,202 -112,272zm34 -578c-79,-78 -187,-127 -306,-127 -120,0 -228,49 -306,127l-1 0c-78,79 -126,187 -126,306 0,120 48,228 126,307l1 0c78,78 186,127 306,127 119,0 227,-49 306,-127l0 0c78,-79 127,-187 127,-307 0,-119 -49,-227 -127,-306l0 0z"></path> <path class="fil0" d="M21044 10749l0 143 229 0c-18,-47 -32,-98 -41,-152 -9,-54 -13,-115 -13,-183l0 -619c0,-68 4,-129 13,-183 9,-54 23,-105 41,-152l-306 0c18,47 32,98 41,152 8,54 13,115 13,183l0 449c0,89 -6,151 -18,187 -11,35 -32,67 -60,94 -30,29 -65,51 -104,66 -39,16 -79,24 -121,24 -54,0 -103,-11 -148,-33 -45,-23 -80,-54 -106,-93 -12,-18 -21,-42 -26,-72 -5,-30 -8,-82 -8,-155l0 -467c0,-68 5,-129 14,-183 8,-54 22,-105 40,-152l-305 0c18,47 31,98 40,152 9,54 14,115 14,183l0 486 0 38c0,63 3,112 10,147 7,35 19,68 35,98 13,23 28,45 47,64 18,20 39,37 62,52 42,27 85,48 131,62 46,14 92,21 137,21 61,0 124,-13 188,-40 65,-25 132,-65 201,-117zm-1474 -192c0,66 5,125 14,180 9,55 24,106 43,155l-308 0c19,-49 32,-100 42,-155 9,-55 13,-114 13,-180l0 -619c0,-66 -4,-126 -13,-181 -10,-54 -23,-106 -42,-154l214 0c184,0 322,31 412,93 90,63 135,157 135,283 0,76 -23,140 -68,195 -44,56 -109,97 -195,127 65,106 135,209 210,308 76,98 156,193 242,283l-191 0c-31,0 -92,-53 -184,-160 -91,-108 -199,-252 -324,-434l0 259zm0 -832l0 529c96,-13 170,-44 223,-92 54,-49 81,-110 81,-185 0,-77 -28,-138 -82,-183 -54,-46 -128,-69 -222,-69l0 0zm-366 1086c-78,31 -153,54 -226,70 -73,15 -142,23 -208,23 -80,0 -154,-11 -223,-34 -70,-23 -133,-57 -191,-103 -76,-58 -134,-130 -174,-216 -41,-87 -61,-181 -61,-284 0,-105 20,-202 61,-291 41,-89 101,-165 179,-227 67,-53 142,-94 227,-121 85,-27 178,-41 279,-41 47,0 97,4 149,11 52,7 106,18 163,32l-2 227c-50,-36 -105,-64 -165,-82 -61,-20 -125,-29 -193,-29 -143,0 -256,46 -341,139 -85,93 -128,218 -128,375 0,148 42,265 124,353 84,87 194,131 333,131 69,0 137,-12 203,-37 66,-25 133,-63 200,-114l-6 218zm-1800 -467l169 -367 155 367 -324 0zm-70 150l462 0 87 202c15,33 25,60 29,79 5,19 7,38 7,57 0,9 0,18 -2,28 0,11 -1,21 -3,32l330 0c-41,-54 -76,-105 -106,-151 -28,-45 -52,-88 -69,-127l-483 -1038 -497 1001c-32,64 -64,122 -96,174 -31,52 -64,99 -97,141l307 0c-1,-8 -2,-16 -2,-21 -1,-6 -1,-11 -1,-16 0,-27 5,-56 13,-88 8,-31 21,-65 39,-103l82 -170zm-1076 80c30,55 66,97 109,126 43,28 91,43 146,43 54,0 97,-16 132,-46 33,-31 50,-71 50,-120 0,-80 -68,-159 -205,-237 -18,-10 -31,-18 -40,-23 -93,-55 -156,-107 -190,-157 -35,-51 -52,-112 -52,-184 0,-108 37,-200 113,-274 75,-74 168,-111 279,-111 35,0 71,3 109,11 39,7 78,19 119,33l-8 225c-28,-34 -59,-60 -97,-77 -36,-18 -76,-27 -120,-27 -57,0 -103,16 -138,50 -35,33 -52,76 -52,129 0,43 12,81 38,113 25,32 82,74 170,126 6,3 15,8 27,15 81,47 140,89 176,124 29,28 51,61 66,99 14,38 22,80 22,126 0,114 -40,204 -119,269 -79,65 -189,97 -330,97 -34,0 -68,-3 -103,-9 -35,-6 -71,-16 -108,-29l6 -292zm-762 175c-71,0 -137,-16 -198,-49 -61,-33 -112,-80 -153,-139 -34,-52 -60,-106 -78,-164 -17,-57 -26,-118 -26,-181 0,-138 39,-252 117,-340 78,-88 178,-132 299,-132 76,0 144,19 208,55 62,37 116,90 160,160 28,45 51,96 66,153 15,56 23,115 23,177 0,135 -39,246 -118,332 -78,85 -178,128 -300,128l0 0zm633 -509c0,-95 -18,-183 -52,-264 -33,-81 -82,-153 -146,-215 -60,-56 -128,-98 -201,-127 -74,-29 -153,-43 -238,-43 -104,0 -201,20 -291,60 -90,40 -167,98 -232,172 -49,58 -86,122 -111,192 -25,69 -38,146 -38,227 0,105 20,202 59,290 39,88 95,162 169,222 61,50 127,87 199,112 73,25 148,38 227,38 84,0 165,-14 240,-43 75,-28 143,-70 205,-125 68,-62 120,-135 156,-220 35,-85 54,-176 54,-276l0 0zm-2004 243c0,80 6,153 17,220 11,67 29,130 52,189l-376 0c23,-59 40,-122 51,-189 12,-67 17,-140 17,-220l0 -755c0,-80 -5,-154 -17,-220 -11,-67 -28,-130 -51,-189l262 0c225,0 392,38 502,114 109,76 164,191 164,345 0,92 -27,171 -81,238 -55,67 -134,119 -239,155 80,130 165,255 257,375 91,121 190,236 295,346l-233 0c-38,0 -112,-65 -224,-196 -112,-130 -244,-307 -396,-529l0 316zm0 -1016l0 646c117,-16 208,-53 272,-112 66,-60 99,-135 99,-225 0,-94 -34,-169 -100,-224 -66,-56 -156,-84 -271,-84l0 -1zm-1938 500l0 590c0,68 5,129 13,183 10,54 23,105 42,152l-307 0c20,-47 33,-98 42,-152 9,-54 14,-115 14,-183l0 -818 -135 -136 301 0c1,30 20,68 55,114 2,2 3,3 4,5l401 512 404 -512c23,-29 38,-52 46,-68 8,-17 12,-33 14,-51l285 0c-39,32 -69,76 -91,133 -21,56 -31,121 -31,194l0 627c0,68 4,129 13,183 9,54 23,105 42,152l-309 0c19,-49 33,-100 42,-155 9,-55 14,-114 14,-180l0 -588 -433 535 -426 -537zm-1139 925c19,-49 33,-100 42,-155 9,-55 14,-114 14,-180l0 -619c0,-66 -5,-126 -14,-181 -9,-54 -23,-106 -42,-154l705 0 -101 208c-41,-27 -89,-46 -144,-59 -57,-13 -121,-20 -193,-20l-15 0 0 445 400 0 -117 187c-33,-16 -72,-30 -118,-41 -46,-10 -101,-17 -165,-22l0 469c5,0 14,0 25,1 11,0 20,1 25,1 82,0 161,-8 238,-23 77,-15 154,-39 230,-70l-98 213 -672 0zm-797 -120l11 0c39,0 76,-5 113,-14 36,-9 71,-22 104,-39 87,-45 156,-108 205,-190 50,-82 75,-172 75,-272 0,-143 -46,-262 -138,-358 -92,-96 -215,-154 -370,-172l0 1045zm-942 -215c0,66 4,125 14,180 9,55 23,106 43,155l-309 0c19,-49 33,-100 42,-155 9,-55 14,-114 14,-180l0 -619c0,-66 -5,-126 -14,-181 -9,-54 -23,-106 -42,-154l215 0c184,0 321,31 411,93 90,63 135,157 135,283 0,76 -23,140 -67,195 -44,56 -110,97 -195,127 65,106 135,209 210,308 73,96 152,189 236,277 17,-47 31,-96 40,-149 9,-55 14,-114 14,-180l0 -619c0,-66 -5,-126 -14,-181 -10,-54 -24,-106 -43,-154l152 0c98,0 181,5 248,15 67,10 129,26 185,47 123,50 220,127 292,231 72,105 108,221 108,351 0,122 -27,232 -82,330 -54,97 -131,174 -230,229 -55,30 -117,52 -187,66 -70,14 -158,20 -264,20l-213 0 -9 0 -183 0c-30,0 -92,-53 -183,-160 -92,-108 -200,-252 -324,-434l0 259zm0 -832l0 529c95,-13 169,-44 223,-92 54,-49 80,-110 80,-185 0,-77 -27,-138 -81,-183 -54,-46 -128,-69 -222,-69l0 0zm-1105 993c149,0 272,-52 367,-156 95,-105 143,-240 143,-405 0,-76 -9,-148 -28,-217 -18,-68 -45,-130 -80,-186 -54,-85 -119,-150 -196,-195 -76,-44 -161,-67 -253,-67 -148,0 -270,54 -365,161 -95,107 -143,246 -143,415 0,77 11,151 32,221 22,70 54,137 95,199 51,73 112,130 187,170 75,40 155,60 241,60l0 0zm772 -621c0,122 -22,234 -65,337 -44,104 -108,193 -190,268 -76,67 -159,118 -251,153 -92,35 -190,53 -292,53 -97,-1 -189,-16 -277,-47 -88,-31 -169,-76 -243,-136 -90,-73 -160,-164 -207,-272 -47,-107 -72,-225 -72,-354 0,-99 16,-191 46,-277 31,-85 76,-163 137,-234 79,-91 173,-161 283,-210 109,-49 227,-73 354,-73 104,0 201,17 291,52 90,36 172,87 245,156 78,75 138,163 179,262 41,99 62,207 62,322l0 0zm12390 795l583 -1142c-8,0 -18,-1 -33,-1 -13,-1 -24,-1 -31,-1 -108,0 -205,11 -290,32 -84,22 -159,55 -224,99l101 -276 769 0 -564 1130c12,1 24,2 36,2 13,1 30,1 55,1 119,0 221,-10 308,-29 86,-19 163,-49 231,-89l-105 274 -836 0z"></path> </g> </svg> 